%TF.GenerationSoftware,KiCad,Pcbnew,8.0.4*%
%TF.CreationDate,2024-11-08T13:11:16-05:00*%
%TF.ProjectId,2.4GHz_Patch,322e3447-487a-45f5-9061-7463682e6b69,rev?*%
%TF.SameCoordinates,Original*%
%TF.FileFunction,Copper,L1,Top*%
%TF.FilePolarity,Positive*%
%FSLAX46Y46*%
G04 Gerber Fmt 4.6, Leading zero omitted, Abs format (unit mm)*
G04 Created by KiCad (PCBNEW 8.0.4) date 2024-11-08 13:11:16*
%MOMM*%
%LPD*%
G01*
G04 APERTURE LIST*
%TA.AperFunction,EtchedComponent*%
%ADD10C,0.200000*%
%TD*%
%TA.AperFunction,SMDPad,CuDef*%
%ADD11R,4.560000X0.850000*%
%TD*%
%TA.AperFunction,SMDPad,CuDef*%
%ADD12R,4.560000X1.000000*%
%TD*%
%TA.AperFunction,ViaPad*%
%ADD13C,1.000000*%
%TD*%
G04 APERTURE END LIST*
%TO.C,AE1*%
D10*
X120218000Y-67406800D02*
X150000000Y-67406800D01*
X150000000Y-70185200D01*
X120218000Y-70185200D01*
X120218000Y-67406800D01*
%TA.AperFunction,EtchedComponent*%
G36*
X120218000Y-67406800D02*
G01*
X150000000Y-67406800D01*
X150000000Y-70185200D01*
X120218000Y-70185200D01*
X120218000Y-67406800D01*
G37*
%TD.AperFunction*%
X142278400Y-50000000D02*
X150000000Y-50000000D01*
X150000000Y-64906800D01*
X142278400Y-64906800D01*
X142278400Y-50000000D01*
%TA.AperFunction,EtchedComponent*%
G36*
X142278400Y-50000000D02*
G01*
X150000000Y-50000000D01*
X150000000Y-64906800D01*
X142278400Y-64906800D01*
X142278400Y-50000000D01*
G37*
%TD.AperFunction*%
X142278400Y-72685200D02*
X150000000Y-72685200D01*
X150000000Y-87592000D01*
X142278400Y-87592000D01*
X142278400Y-72685200D01*
%TA.AperFunction,EtchedComponent*%
G36*
X142278400Y-72685200D02*
G01*
X150000000Y-72685200D01*
X150000000Y-87592000D01*
X142278400Y-87592000D01*
X142278400Y-72685200D01*
G37*
%TD.AperFunction*%
X150000000Y-50000000D02*
X170218400Y-50000000D01*
X170218400Y-87592000D01*
X150000000Y-87592000D01*
X150000000Y-50000000D01*
%TA.AperFunction,EtchedComponent*%
G36*
X150000000Y-50000000D02*
G01*
X170218400Y-50000000D01*
X170218400Y-87592000D01*
X150000000Y-87592000D01*
X150000000Y-50000000D01*
G37*
%TD.AperFunction*%
%TD*%
D11*
%TO.P,J1,1*%
%TO.N,Net-(AE1-A)*%
X118750000Y-68750000D03*
D12*
%TO.P,J1,SH1*%
%TO.N,GND*%
X118750000Y-65980000D03*
%TO.P,J1,SH2*%
X118750000Y-71520000D03*
%TD*%
D13*
%TO.N,GND*%
X118750000Y-71520000D03*
X118750000Y-65980000D03*
%TD*%
M02*
