%TF.GenerationSoftware,KiCad,Pcbnew,8.0.4*%
%TF.CreationDate,2024-11-08T13:11:18-05:00*%
%TF.ProjectId,2.4GHz_Patch,322e3447-487a-45f5-9061-7463682e6b69,rev?*%
%TF.SameCoordinates,Original*%
%TF.FileFunction,Drillmap*%
%TF.FilePolarity,Positive*%
%FSLAX45Y45*%
G04 Gerber Fmt 4.5, Leading zero omitted, Abs format (unit mm)*
G04 Created by KiCad (PCBNEW 8.0.4) date 2024-11-08 13:11:18*
%MOMM*%
%LPD*%
G01*
G04 APERTURE LIST*
%ADD10C,0.050000*%
%ADD11C,0.200000*%
%ADD12C,0.100000*%
G04 APERTURE END LIST*
D10*
X18640000Y-3255900D02*
G75*
G02*
X19140000Y-3755900I0J-500000D01*
G01*
X19140000Y-10255900D02*
G75*
G02*
X18640000Y-10755900I-500000J0D01*
G01*
X11640000Y-3755900D02*
G75*
G02*
X12140000Y-3255900I500000J0D01*
G01*
X12140000Y-10755900D02*
G75*
G02*
X11640000Y-10255900I0J500000D01*
G01*
X12140000Y-3255900D02*
X18640000Y-3255900D01*
X19140000Y-3755900D02*
X19140000Y-10255900D01*
X18640000Y-10755900D02*
X12140000Y-10755900D01*
X11640000Y-10255900D02*
X11640000Y-3755900D01*
D11*
D12*
X11860000Y-6583000D02*
X11890000Y-6613000D01*
X11890000Y-6583000D02*
X11860000Y-6613000D01*
X11860000Y-7137000D02*
X11890000Y-7167000D01*
X11890000Y-7137000D02*
X11860000Y-7167000D01*
D11*
X11898277Y-11069884D02*
X11898277Y-10869884D01*
X11898277Y-10869884D02*
X11945896Y-10869884D01*
X11945896Y-10869884D02*
X11974467Y-10879408D01*
X11974467Y-10879408D02*
X11993515Y-10898455D01*
X11993515Y-10898455D02*
X12003039Y-10917503D01*
X12003039Y-10917503D02*
X12012562Y-10955598D01*
X12012562Y-10955598D02*
X12012562Y-10984170D01*
X12012562Y-10984170D02*
X12003039Y-11022265D01*
X12003039Y-11022265D02*
X11993515Y-11041312D01*
X11993515Y-11041312D02*
X11974467Y-11060360D01*
X11974467Y-11060360D02*
X11945896Y-11069884D01*
X11945896Y-11069884D02*
X11898277Y-11069884D01*
X12098277Y-11069884D02*
X12098277Y-10936550D01*
X12098277Y-10974646D02*
X12107801Y-10955598D01*
X12107801Y-10955598D02*
X12117324Y-10946074D01*
X12117324Y-10946074D02*
X12136372Y-10936550D01*
X12136372Y-10936550D02*
X12155420Y-10936550D01*
X12222086Y-11069884D02*
X12222086Y-10936550D01*
X12222086Y-10869884D02*
X12212562Y-10879408D01*
X12212562Y-10879408D02*
X12222086Y-10888931D01*
X12222086Y-10888931D02*
X12231610Y-10879408D01*
X12231610Y-10879408D02*
X12222086Y-10869884D01*
X12222086Y-10869884D02*
X12222086Y-10888931D01*
X12345896Y-11069884D02*
X12326848Y-11060360D01*
X12326848Y-11060360D02*
X12317324Y-11041312D01*
X12317324Y-11041312D02*
X12317324Y-10869884D01*
X12450658Y-11069884D02*
X12431610Y-11060360D01*
X12431610Y-11060360D02*
X12422086Y-11041312D01*
X12422086Y-11041312D02*
X12422086Y-10869884D01*
X12679229Y-11069884D02*
X12679229Y-10869884D01*
X12679229Y-10869884D02*
X12745896Y-11012741D01*
X12745896Y-11012741D02*
X12812562Y-10869884D01*
X12812562Y-10869884D02*
X12812562Y-11069884D01*
X12993515Y-11069884D02*
X12993515Y-10965122D01*
X12993515Y-10965122D02*
X12983991Y-10946074D01*
X12983991Y-10946074D02*
X12964943Y-10936550D01*
X12964943Y-10936550D02*
X12926848Y-10936550D01*
X12926848Y-10936550D02*
X12907801Y-10946074D01*
X12993515Y-11060360D02*
X12974467Y-11069884D01*
X12974467Y-11069884D02*
X12926848Y-11069884D01*
X12926848Y-11069884D02*
X12907801Y-11060360D01*
X12907801Y-11060360D02*
X12898277Y-11041312D01*
X12898277Y-11041312D02*
X12898277Y-11022265D01*
X12898277Y-11022265D02*
X12907801Y-11003217D01*
X12907801Y-11003217D02*
X12926848Y-10993693D01*
X12926848Y-10993693D02*
X12974467Y-10993693D01*
X12974467Y-10993693D02*
X12993515Y-10984170D01*
X13088753Y-10936550D02*
X13088753Y-11136550D01*
X13088753Y-10946074D02*
X13107801Y-10936550D01*
X13107801Y-10936550D02*
X13145896Y-10936550D01*
X13145896Y-10936550D02*
X13164943Y-10946074D01*
X13164943Y-10946074D02*
X13174467Y-10955598D01*
X13174467Y-10955598D02*
X13183991Y-10974646D01*
X13183991Y-10974646D02*
X13183991Y-11031789D01*
X13183991Y-11031789D02*
X13174467Y-11050836D01*
X13174467Y-11050836D02*
X13164943Y-11060360D01*
X13164943Y-11060360D02*
X13145896Y-11069884D01*
X13145896Y-11069884D02*
X13107801Y-11069884D01*
X13107801Y-11069884D02*
X13088753Y-11060360D01*
X13269705Y-11050836D02*
X13279229Y-11060360D01*
X13279229Y-11060360D02*
X13269705Y-11069884D01*
X13269705Y-11069884D02*
X13260182Y-11060360D01*
X13260182Y-11060360D02*
X13269705Y-11050836D01*
X13269705Y-11050836D02*
X13269705Y-11069884D01*
X13269705Y-10946074D02*
X13279229Y-10955598D01*
X13279229Y-10955598D02*
X13269705Y-10965122D01*
X13269705Y-10965122D02*
X13260182Y-10955598D01*
X13260182Y-10955598D02*
X13269705Y-10946074D01*
X13269705Y-10946074D02*
X13269705Y-10965122D01*
D12*
X11607500Y-11383400D02*
X11637500Y-11413400D01*
X11637500Y-11383400D02*
X11607500Y-11413400D01*
D11*
X11936372Y-11289884D02*
X11955420Y-11289884D01*
X11955420Y-11289884D02*
X11974467Y-11299408D01*
X11974467Y-11299408D02*
X11983991Y-11308931D01*
X11983991Y-11308931D02*
X11993515Y-11327979D01*
X11993515Y-11327979D02*
X12003039Y-11366074D01*
X12003039Y-11366074D02*
X12003039Y-11413693D01*
X12003039Y-11413693D02*
X11993515Y-11451788D01*
X11993515Y-11451788D02*
X11983991Y-11470836D01*
X11983991Y-11470836D02*
X11974467Y-11480360D01*
X11974467Y-11480360D02*
X11955420Y-11489884D01*
X11955420Y-11489884D02*
X11936372Y-11489884D01*
X11936372Y-11489884D02*
X11917324Y-11480360D01*
X11917324Y-11480360D02*
X11907801Y-11470836D01*
X11907801Y-11470836D02*
X11898277Y-11451788D01*
X11898277Y-11451788D02*
X11888753Y-11413693D01*
X11888753Y-11413693D02*
X11888753Y-11366074D01*
X11888753Y-11366074D02*
X11898277Y-11327979D01*
X11898277Y-11327979D02*
X11907801Y-11308931D01*
X11907801Y-11308931D02*
X11917324Y-11299408D01*
X11917324Y-11299408D02*
X11936372Y-11289884D01*
X12088753Y-11470836D02*
X12098277Y-11480360D01*
X12098277Y-11480360D02*
X12088753Y-11489884D01*
X12088753Y-11489884D02*
X12079229Y-11480360D01*
X12079229Y-11480360D02*
X12088753Y-11470836D01*
X12088753Y-11470836D02*
X12088753Y-11489884D01*
X12164943Y-11289884D02*
X12288753Y-11289884D01*
X12288753Y-11289884D02*
X12222086Y-11366074D01*
X12222086Y-11366074D02*
X12250658Y-11366074D01*
X12250658Y-11366074D02*
X12269705Y-11375598D01*
X12269705Y-11375598D02*
X12279229Y-11385122D01*
X12279229Y-11385122D02*
X12288753Y-11404169D01*
X12288753Y-11404169D02*
X12288753Y-11451788D01*
X12288753Y-11451788D02*
X12279229Y-11470836D01*
X12279229Y-11470836D02*
X12269705Y-11480360D01*
X12269705Y-11480360D02*
X12250658Y-11489884D01*
X12250658Y-11489884D02*
X12193515Y-11489884D01*
X12193515Y-11489884D02*
X12174467Y-11480360D01*
X12174467Y-11480360D02*
X12164943Y-11470836D01*
X12412562Y-11289884D02*
X12431610Y-11289884D01*
X12431610Y-11289884D02*
X12450658Y-11299408D01*
X12450658Y-11299408D02*
X12460182Y-11308931D01*
X12460182Y-11308931D02*
X12469705Y-11327979D01*
X12469705Y-11327979D02*
X12479229Y-11366074D01*
X12479229Y-11366074D02*
X12479229Y-11413693D01*
X12479229Y-11413693D02*
X12469705Y-11451788D01*
X12469705Y-11451788D02*
X12460182Y-11470836D01*
X12460182Y-11470836D02*
X12450658Y-11480360D01*
X12450658Y-11480360D02*
X12431610Y-11489884D01*
X12431610Y-11489884D02*
X12412562Y-11489884D01*
X12412562Y-11489884D02*
X12393515Y-11480360D01*
X12393515Y-11480360D02*
X12383991Y-11470836D01*
X12383991Y-11470836D02*
X12374467Y-11451788D01*
X12374467Y-11451788D02*
X12364943Y-11413693D01*
X12364943Y-11413693D02*
X12364943Y-11366074D01*
X12364943Y-11366074D02*
X12374467Y-11327979D01*
X12374467Y-11327979D02*
X12383991Y-11308931D01*
X12383991Y-11308931D02*
X12393515Y-11299408D01*
X12393515Y-11299408D02*
X12412562Y-11289884D01*
X12603039Y-11289884D02*
X12622086Y-11289884D01*
X12622086Y-11289884D02*
X12641134Y-11299408D01*
X12641134Y-11299408D02*
X12650658Y-11308931D01*
X12650658Y-11308931D02*
X12660182Y-11327979D01*
X12660182Y-11327979D02*
X12669705Y-11366074D01*
X12669705Y-11366074D02*
X12669705Y-11413693D01*
X12669705Y-11413693D02*
X12660182Y-11451788D01*
X12660182Y-11451788D02*
X12650658Y-11470836D01*
X12650658Y-11470836D02*
X12641134Y-11480360D01*
X12641134Y-11480360D02*
X12622086Y-11489884D01*
X12622086Y-11489884D02*
X12603039Y-11489884D01*
X12603039Y-11489884D02*
X12583991Y-11480360D01*
X12583991Y-11480360D02*
X12574467Y-11470836D01*
X12574467Y-11470836D02*
X12564943Y-11451788D01*
X12564943Y-11451788D02*
X12555420Y-11413693D01*
X12555420Y-11413693D02*
X12555420Y-11366074D01*
X12555420Y-11366074D02*
X12564943Y-11327979D01*
X12564943Y-11327979D02*
X12574467Y-11308931D01*
X12574467Y-11308931D02*
X12583991Y-11299408D01*
X12583991Y-11299408D02*
X12603039Y-11289884D01*
X12755420Y-11489884D02*
X12755420Y-11356550D01*
X12755420Y-11375598D02*
X12764943Y-11366074D01*
X12764943Y-11366074D02*
X12783991Y-11356550D01*
X12783991Y-11356550D02*
X12812563Y-11356550D01*
X12812563Y-11356550D02*
X12831610Y-11366074D01*
X12831610Y-11366074D02*
X12841134Y-11385122D01*
X12841134Y-11385122D02*
X12841134Y-11489884D01*
X12841134Y-11385122D02*
X12850658Y-11366074D01*
X12850658Y-11366074D02*
X12869705Y-11356550D01*
X12869705Y-11356550D02*
X12898277Y-11356550D01*
X12898277Y-11356550D02*
X12917324Y-11366074D01*
X12917324Y-11366074D02*
X12926848Y-11385122D01*
X12926848Y-11385122D02*
X12926848Y-11489884D01*
X13022086Y-11489884D02*
X13022086Y-11356550D01*
X13022086Y-11375598D02*
X13031610Y-11366074D01*
X13031610Y-11366074D02*
X13050658Y-11356550D01*
X13050658Y-11356550D02*
X13079229Y-11356550D01*
X13079229Y-11356550D02*
X13098277Y-11366074D01*
X13098277Y-11366074D02*
X13107801Y-11385122D01*
X13107801Y-11385122D02*
X13107801Y-11489884D01*
X13107801Y-11385122D02*
X13117324Y-11366074D01*
X13117324Y-11366074D02*
X13136372Y-11356550D01*
X13136372Y-11356550D02*
X13164943Y-11356550D01*
X13164943Y-11356550D02*
X13183991Y-11366074D01*
X13183991Y-11366074D02*
X13193515Y-11385122D01*
X13193515Y-11385122D02*
X13193515Y-11489884D01*
X13583991Y-11280360D02*
X13412563Y-11537503D01*
X13841134Y-11289884D02*
X13860182Y-11289884D01*
X13860182Y-11289884D02*
X13879229Y-11299408D01*
X13879229Y-11299408D02*
X13888753Y-11308931D01*
X13888753Y-11308931D02*
X13898277Y-11327979D01*
X13898277Y-11327979D02*
X13907801Y-11366074D01*
X13907801Y-11366074D02*
X13907801Y-11413693D01*
X13907801Y-11413693D02*
X13898277Y-11451788D01*
X13898277Y-11451788D02*
X13888753Y-11470836D01*
X13888753Y-11470836D02*
X13879229Y-11480360D01*
X13879229Y-11480360D02*
X13860182Y-11489884D01*
X13860182Y-11489884D02*
X13841134Y-11489884D01*
X13841134Y-11489884D02*
X13822086Y-11480360D01*
X13822086Y-11480360D02*
X13812563Y-11470836D01*
X13812563Y-11470836D02*
X13803039Y-11451788D01*
X13803039Y-11451788D02*
X13793515Y-11413693D01*
X13793515Y-11413693D02*
X13793515Y-11366074D01*
X13793515Y-11366074D02*
X13803039Y-11327979D01*
X13803039Y-11327979D02*
X13812563Y-11308931D01*
X13812563Y-11308931D02*
X13822086Y-11299408D01*
X13822086Y-11299408D02*
X13841134Y-11289884D01*
X13993515Y-11470836D02*
X14003039Y-11480360D01*
X14003039Y-11480360D02*
X13993515Y-11489884D01*
X13993515Y-11489884D02*
X13983991Y-11480360D01*
X13983991Y-11480360D02*
X13993515Y-11470836D01*
X13993515Y-11470836D02*
X13993515Y-11489884D01*
X14126848Y-11289884D02*
X14145896Y-11289884D01*
X14145896Y-11289884D02*
X14164944Y-11299408D01*
X14164944Y-11299408D02*
X14174467Y-11308931D01*
X14174467Y-11308931D02*
X14183991Y-11327979D01*
X14183991Y-11327979D02*
X14193515Y-11366074D01*
X14193515Y-11366074D02*
X14193515Y-11413693D01*
X14193515Y-11413693D02*
X14183991Y-11451788D01*
X14183991Y-11451788D02*
X14174467Y-11470836D01*
X14174467Y-11470836D02*
X14164944Y-11480360D01*
X14164944Y-11480360D02*
X14145896Y-11489884D01*
X14145896Y-11489884D02*
X14126848Y-11489884D01*
X14126848Y-11489884D02*
X14107801Y-11480360D01*
X14107801Y-11480360D02*
X14098277Y-11470836D01*
X14098277Y-11470836D02*
X14088753Y-11451788D01*
X14088753Y-11451788D02*
X14079229Y-11413693D01*
X14079229Y-11413693D02*
X14079229Y-11366074D01*
X14079229Y-11366074D02*
X14088753Y-11327979D01*
X14088753Y-11327979D02*
X14098277Y-11308931D01*
X14098277Y-11308931D02*
X14107801Y-11299408D01*
X14107801Y-11299408D02*
X14126848Y-11289884D01*
X14383991Y-11489884D02*
X14269706Y-11489884D01*
X14326848Y-11489884D02*
X14326848Y-11289884D01*
X14326848Y-11289884D02*
X14307801Y-11318455D01*
X14307801Y-11318455D02*
X14288753Y-11337503D01*
X14288753Y-11337503D02*
X14269706Y-11347027D01*
X14574467Y-11489884D02*
X14460182Y-11489884D01*
X14517325Y-11489884D02*
X14517325Y-11289884D01*
X14517325Y-11289884D02*
X14498277Y-11318455D01*
X14498277Y-11318455D02*
X14479229Y-11337503D01*
X14479229Y-11337503D02*
X14460182Y-11347027D01*
X14688753Y-11375598D02*
X14669706Y-11366074D01*
X14669706Y-11366074D02*
X14660182Y-11356550D01*
X14660182Y-11356550D02*
X14650658Y-11337503D01*
X14650658Y-11337503D02*
X14650658Y-11327979D01*
X14650658Y-11327979D02*
X14660182Y-11308931D01*
X14660182Y-11308931D02*
X14669706Y-11299408D01*
X14669706Y-11299408D02*
X14688753Y-11289884D01*
X14688753Y-11289884D02*
X14726848Y-11289884D01*
X14726848Y-11289884D02*
X14745896Y-11299408D01*
X14745896Y-11299408D02*
X14755420Y-11308931D01*
X14755420Y-11308931D02*
X14764944Y-11327979D01*
X14764944Y-11327979D02*
X14764944Y-11337503D01*
X14764944Y-11337503D02*
X14755420Y-11356550D01*
X14755420Y-11356550D02*
X14745896Y-11366074D01*
X14745896Y-11366074D02*
X14726848Y-11375598D01*
X14726848Y-11375598D02*
X14688753Y-11375598D01*
X14688753Y-11375598D02*
X14669706Y-11385122D01*
X14669706Y-11385122D02*
X14660182Y-11394646D01*
X14660182Y-11394646D02*
X14650658Y-11413693D01*
X14650658Y-11413693D02*
X14650658Y-11451788D01*
X14650658Y-11451788D02*
X14660182Y-11470836D01*
X14660182Y-11470836D02*
X14669706Y-11480360D01*
X14669706Y-11480360D02*
X14688753Y-11489884D01*
X14688753Y-11489884D02*
X14726848Y-11489884D01*
X14726848Y-11489884D02*
X14745896Y-11480360D01*
X14745896Y-11480360D02*
X14755420Y-11470836D01*
X14755420Y-11470836D02*
X14764944Y-11451788D01*
X14764944Y-11451788D02*
X14764944Y-11413693D01*
X14764944Y-11413693D02*
X14755420Y-11394646D01*
X14755420Y-11394646D02*
X14745896Y-11385122D01*
X14745896Y-11385122D02*
X14726848Y-11375598D01*
X14841134Y-11289884D02*
X14841134Y-11327979D01*
X14917325Y-11289884D02*
X14917325Y-11327979D01*
X15212563Y-11566074D02*
X15203039Y-11556550D01*
X15203039Y-11556550D02*
X15183991Y-11527979D01*
X15183991Y-11527979D02*
X15174468Y-11508931D01*
X15174468Y-11508931D02*
X15164944Y-11480360D01*
X15164944Y-11480360D02*
X15155420Y-11432741D01*
X15155420Y-11432741D02*
X15155420Y-11394646D01*
X15155420Y-11394646D02*
X15164944Y-11347027D01*
X15164944Y-11347027D02*
X15174468Y-11318455D01*
X15174468Y-11318455D02*
X15183991Y-11299408D01*
X15183991Y-11299408D02*
X15203039Y-11270836D01*
X15203039Y-11270836D02*
X15212563Y-11261312D01*
X15279229Y-11308931D02*
X15288753Y-11299408D01*
X15288753Y-11299408D02*
X15307801Y-11289884D01*
X15307801Y-11289884D02*
X15355420Y-11289884D01*
X15355420Y-11289884D02*
X15374468Y-11299408D01*
X15374468Y-11299408D02*
X15383991Y-11308931D01*
X15383991Y-11308931D02*
X15393515Y-11327979D01*
X15393515Y-11327979D02*
X15393515Y-11347027D01*
X15393515Y-11347027D02*
X15383991Y-11375598D01*
X15383991Y-11375598D02*
X15269706Y-11489884D01*
X15269706Y-11489884D02*
X15393515Y-11489884D01*
X15631610Y-11489884D02*
X15631610Y-11289884D01*
X15717325Y-11489884D02*
X15717325Y-11385122D01*
X15717325Y-11385122D02*
X15707801Y-11366074D01*
X15707801Y-11366074D02*
X15688753Y-11356550D01*
X15688753Y-11356550D02*
X15660182Y-11356550D01*
X15660182Y-11356550D02*
X15641134Y-11366074D01*
X15641134Y-11366074D02*
X15631610Y-11375598D01*
X15841134Y-11489884D02*
X15822087Y-11480360D01*
X15822087Y-11480360D02*
X15812563Y-11470836D01*
X15812563Y-11470836D02*
X15803039Y-11451788D01*
X15803039Y-11451788D02*
X15803039Y-11394646D01*
X15803039Y-11394646D02*
X15812563Y-11375598D01*
X15812563Y-11375598D02*
X15822087Y-11366074D01*
X15822087Y-11366074D02*
X15841134Y-11356550D01*
X15841134Y-11356550D02*
X15869706Y-11356550D01*
X15869706Y-11356550D02*
X15888753Y-11366074D01*
X15888753Y-11366074D02*
X15898277Y-11375598D01*
X15898277Y-11375598D02*
X15907801Y-11394646D01*
X15907801Y-11394646D02*
X15907801Y-11451788D01*
X15907801Y-11451788D02*
X15898277Y-11470836D01*
X15898277Y-11470836D02*
X15888753Y-11480360D01*
X15888753Y-11480360D02*
X15869706Y-11489884D01*
X15869706Y-11489884D02*
X15841134Y-11489884D01*
X16022087Y-11489884D02*
X16003039Y-11480360D01*
X16003039Y-11480360D02*
X15993515Y-11461312D01*
X15993515Y-11461312D02*
X15993515Y-11289884D01*
X16174468Y-11480360D02*
X16155420Y-11489884D01*
X16155420Y-11489884D02*
X16117325Y-11489884D01*
X16117325Y-11489884D02*
X16098277Y-11480360D01*
X16098277Y-11480360D02*
X16088753Y-11461312D01*
X16088753Y-11461312D02*
X16088753Y-11385122D01*
X16088753Y-11385122D02*
X16098277Y-11366074D01*
X16098277Y-11366074D02*
X16117325Y-11356550D01*
X16117325Y-11356550D02*
X16155420Y-11356550D01*
X16155420Y-11356550D02*
X16174468Y-11366074D01*
X16174468Y-11366074D02*
X16183991Y-11385122D01*
X16183991Y-11385122D02*
X16183991Y-11404169D01*
X16183991Y-11404169D02*
X16088753Y-11423217D01*
X16260182Y-11480360D02*
X16279230Y-11489884D01*
X16279230Y-11489884D02*
X16317325Y-11489884D01*
X16317325Y-11489884D02*
X16336372Y-11480360D01*
X16336372Y-11480360D02*
X16345896Y-11461312D01*
X16345896Y-11461312D02*
X16345896Y-11451788D01*
X16345896Y-11451788D02*
X16336372Y-11432741D01*
X16336372Y-11432741D02*
X16317325Y-11423217D01*
X16317325Y-11423217D02*
X16288753Y-11423217D01*
X16288753Y-11423217D02*
X16269706Y-11413693D01*
X16269706Y-11413693D02*
X16260182Y-11394646D01*
X16260182Y-11394646D02*
X16260182Y-11385122D01*
X16260182Y-11385122D02*
X16269706Y-11366074D01*
X16269706Y-11366074D02*
X16288753Y-11356550D01*
X16288753Y-11356550D02*
X16317325Y-11356550D01*
X16317325Y-11356550D02*
X16336372Y-11366074D01*
X16412563Y-11566074D02*
X16422087Y-11556550D01*
X16422087Y-11556550D02*
X16441134Y-11527979D01*
X16441134Y-11527979D02*
X16450658Y-11508931D01*
X16450658Y-11508931D02*
X16460182Y-11480360D01*
X16460182Y-11480360D02*
X16469706Y-11432741D01*
X16469706Y-11432741D02*
X16469706Y-11394646D01*
X16469706Y-11394646D02*
X16460182Y-11347027D01*
X16460182Y-11347027D02*
X16450658Y-11318455D01*
X16450658Y-11318455D02*
X16441134Y-11299408D01*
X16441134Y-11299408D02*
X16422087Y-11270836D01*
X16422087Y-11270836D02*
X16412563Y-11261312D01*
M02*
