%TF.GenerationSoftware,KiCad,Pcbnew,8.0.4*%
%TF.CreationDate,2024-11-08T13:08:53-05:00*%
%TF.ProjectId,2.4GHz_Patch,322e3447-487a-45f5-9061-7463682e6b69,rev?*%
%TF.SameCoordinates,Original*%
%TF.FileFunction,Legend,Bot*%
%TF.FilePolarity,Positive*%
%FSLAX46Y46*%
G04 Gerber Fmt 4.6, Leading zero omitted, Abs format (unit mm)*
G04 Created by KiCad (PCBNEW 8.0.4) date 2024-11-08 13:08:53*
%MOMM*%
%LPD*%
G01*
G04 APERTURE LIST*
%ADD10C,0.250000*%
G04 APERTURE END LIST*
D10*
X167659336Y-64202462D02*
X167659336Y-62202462D01*
X166516479Y-64202462D02*
X167373622Y-63059604D01*
X166516479Y-62202462D02*
X167659336Y-63345319D01*
X164897431Y-64107224D02*
X165087907Y-64202462D01*
X165087907Y-64202462D02*
X165468860Y-64202462D01*
X165468860Y-64202462D02*
X165659336Y-64107224D01*
X165659336Y-64107224D02*
X165754574Y-63916747D01*
X165754574Y-63916747D02*
X165754574Y-63154843D01*
X165754574Y-63154843D02*
X165659336Y-62964366D01*
X165659336Y-62964366D02*
X165468860Y-62869128D01*
X165468860Y-62869128D02*
X165087907Y-62869128D01*
X165087907Y-62869128D02*
X164897431Y-62964366D01*
X164897431Y-62964366D02*
X164802193Y-63154843D01*
X164802193Y-63154843D02*
X164802193Y-63345319D01*
X164802193Y-63345319D02*
X165754574Y-63535795D01*
X163183145Y-64107224D02*
X163373621Y-64202462D01*
X163373621Y-64202462D02*
X163754574Y-64202462D01*
X163754574Y-64202462D02*
X163945050Y-64107224D01*
X163945050Y-64107224D02*
X164040288Y-63916747D01*
X164040288Y-63916747D02*
X164040288Y-63154843D01*
X164040288Y-63154843D02*
X163945050Y-62964366D01*
X163945050Y-62964366D02*
X163754574Y-62869128D01*
X163754574Y-62869128D02*
X163373621Y-62869128D01*
X163373621Y-62869128D02*
X163183145Y-62964366D01*
X163183145Y-62964366D02*
X163087907Y-63154843D01*
X163087907Y-63154843D02*
X163087907Y-63345319D01*
X163087907Y-63345319D02*
X164040288Y-63535795D01*
X162516478Y-62869128D02*
X161754574Y-62869128D01*
X162230764Y-62202462D02*
X162230764Y-63916747D01*
X162230764Y-63916747D02*
X162135526Y-64107224D01*
X162135526Y-64107224D02*
X161945050Y-64202462D01*
X161945050Y-64202462D02*
X161754574Y-64202462D01*
X161278383Y-62869128D02*
X160802193Y-64202462D01*
X160326002Y-62869128D02*
X160802193Y-64202462D01*
X160802193Y-64202462D02*
X160992669Y-64678652D01*
X160992669Y-64678652D02*
X161087907Y-64773890D01*
X161087907Y-64773890D02*
X161278383Y-64869128D01*
X159564097Y-62869128D02*
X159564097Y-64202462D01*
X159564097Y-63059604D02*
X159468859Y-62964366D01*
X159468859Y-62964366D02*
X159278383Y-62869128D01*
X159278383Y-62869128D02*
X158992668Y-62869128D01*
X158992668Y-62869128D02*
X158802192Y-62964366D01*
X158802192Y-62964366D02*
X158706954Y-63154843D01*
X158706954Y-63154843D02*
X158706954Y-64202462D01*
X155564096Y-63154843D02*
X155278382Y-63250081D01*
X155278382Y-63250081D02*
X155183144Y-63345319D01*
X155183144Y-63345319D02*
X155087906Y-63535795D01*
X155087906Y-63535795D02*
X155087906Y-63821509D01*
X155087906Y-63821509D02*
X155183144Y-64011985D01*
X155183144Y-64011985D02*
X155278382Y-64107224D01*
X155278382Y-64107224D02*
X155468858Y-64202462D01*
X155468858Y-64202462D02*
X156230763Y-64202462D01*
X156230763Y-64202462D02*
X156230763Y-62202462D01*
X156230763Y-62202462D02*
X155564096Y-62202462D01*
X155564096Y-62202462D02*
X155373620Y-62297700D01*
X155373620Y-62297700D02*
X155278382Y-62392938D01*
X155278382Y-62392938D02*
X155183144Y-62583414D01*
X155183144Y-62583414D02*
X155183144Y-62773890D01*
X155183144Y-62773890D02*
X155278382Y-62964366D01*
X155278382Y-62964366D02*
X155373620Y-63059604D01*
X155373620Y-63059604D02*
X155564096Y-63154843D01*
X155564096Y-63154843D02*
X156230763Y-63154843D01*
X153373620Y-62869128D02*
X153373620Y-64202462D01*
X154230763Y-62869128D02*
X154230763Y-63916747D01*
X154230763Y-63916747D02*
X154135525Y-64107224D01*
X154135525Y-64107224D02*
X153945049Y-64202462D01*
X153945049Y-64202462D02*
X153659334Y-64202462D01*
X153659334Y-64202462D02*
X153468858Y-64107224D01*
X153468858Y-64107224D02*
X153373620Y-64011985D01*
X152421239Y-64202462D02*
X152421239Y-62869128D01*
X152421239Y-63250081D02*
X152326001Y-63059604D01*
X152326001Y-63059604D02*
X152230763Y-62964366D01*
X152230763Y-62964366D02*
X152040287Y-62869128D01*
X152040287Y-62869128D02*
X151849810Y-62869128D01*
X151183144Y-62869128D02*
X151183144Y-64202462D01*
X151183144Y-63059604D02*
X151087906Y-62964366D01*
X151087906Y-62964366D02*
X150897430Y-62869128D01*
X150897430Y-62869128D02*
X150611715Y-62869128D01*
X150611715Y-62869128D02*
X150421239Y-62964366D01*
X150421239Y-62964366D02*
X150326001Y-63154843D01*
X150326001Y-63154843D02*
X150326001Y-64202462D01*
X148611715Y-64107224D02*
X148802191Y-64202462D01*
X148802191Y-64202462D02*
X149183144Y-64202462D01*
X149183144Y-64202462D02*
X149373620Y-64107224D01*
X149373620Y-64107224D02*
X149468858Y-63916747D01*
X149468858Y-63916747D02*
X149468858Y-63154843D01*
X149468858Y-63154843D02*
X149373620Y-62964366D01*
X149373620Y-62964366D02*
X149183144Y-62869128D01*
X149183144Y-62869128D02*
X148802191Y-62869128D01*
X148802191Y-62869128D02*
X148611715Y-62964366D01*
X148611715Y-62964366D02*
X148516477Y-63154843D01*
X148516477Y-63154843D02*
X148516477Y-63345319D01*
X148516477Y-63345319D02*
X149468858Y-63535795D01*
X147945048Y-62869128D02*
X147183144Y-62869128D01*
X147659334Y-62202462D02*
X147659334Y-63916747D01*
X147659334Y-63916747D02*
X147564096Y-64107224D01*
X147564096Y-64107224D02*
X147373620Y-64202462D01*
X147373620Y-64202462D02*
X147183144Y-64202462D01*
X146802191Y-62869128D02*
X146040287Y-62869128D01*
X146516477Y-62202462D02*
X146516477Y-63916747D01*
X146516477Y-63916747D02*
X146421239Y-64107224D01*
X146421239Y-64107224D02*
X146230763Y-64202462D01*
X146230763Y-64202462D02*
X146040287Y-64202462D01*
X167659336Y-66374731D02*
X166992669Y-66374731D01*
X166706955Y-67422350D02*
X167659336Y-67422350D01*
X167659336Y-67422350D02*
X167659336Y-65422350D01*
X167659336Y-65422350D02*
X166706955Y-65422350D01*
X164706955Y-67231873D02*
X164802193Y-67327112D01*
X164802193Y-67327112D02*
X165087907Y-67422350D01*
X165087907Y-67422350D02*
X165278383Y-67422350D01*
X165278383Y-67422350D02*
X165564098Y-67327112D01*
X165564098Y-67327112D02*
X165754574Y-67136635D01*
X165754574Y-67136635D02*
X165849812Y-66946159D01*
X165849812Y-66946159D02*
X165945050Y-66565207D01*
X165945050Y-66565207D02*
X165945050Y-66279492D01*
X165945050Y-66279492D02*
X165849812Y-65898540D01*
X165849812Y-65898540D02*
X165754574Y-65708064D01*
X165754574Y-65708064D02*
X165564098Y-65517588D01*
X165564098Y-65517588D02*
X165278383Y-65422350D01*
X165278383Y-65422350D02*
X165087907Y-65422350D01*
X165087907Y-65422350D02*
X164802193Y-65517588D01*
X164802193Y-65517588D02*
X164706955Y-65612826D01*
X163849812Y-66374731D02*
X163183145Y-66374731D01*
X162897431Y-67422350D02*
X163849812Y-67422350D01*
X163849812Y-67422350D02*
X163849812Y-65422350D01*
X163849812Y-65422350D02*
X162897431Y-65422350D01*
X162326002Y-65422350D02*
X161183145Y-65422350D01*
X161754574Y-67422350D02*
X161754574Y-65422350D01*
X159183144Y-65422350D02*
X157945049Y-65422350D01*
X157945049Y-65422350D02*
X158611716Y-66184254D01*
X158611716Y-66184254D02*
X158326001Y-66184254D01*
X158326001Y-66184254D02*
X158135525Y-66279492D01*
X158135525Y-66279492D02*
X158040287Y-66374731D01*
X158040287Y-66374731D02*
X157945049Y-66565207D01*
X157945049Y-66565207D02*
X157945049Y-67041397D01*
X157945049Y-67041397D02*
X158040287Y-67231873D01*
X158040287Y-67231873D02*
X158135525Y-67327112D01*
X158135525Y-67327112D02*
X158326001Y-67422350D01*
X158326001Y-67422350D02*
X158897430Y-67422350D01*
X158897430Y-67422350D02*
X159087906Y-67327112D01*
X159087906Y-67327112D02*
X159183144Y-67231873D01*
X156230763Y-65422350D02*
X156611716Y-65422350D01*
X156611716Y-65422350D02*
X156802192Y-65517588D01*
X156802192Y-65517588D02*
X156897430Y-65612826D01*
X156897430Y-65612826D02*
X157087906Y-65898540D01*
X157087906Y-65898540D02*
X157183144Y-66279492D01*
X157183144Y-66279492D02*
X157183144Y-67041397D01*
X157183144Y-67041397D02*
X157087906Y-67231873D01*
X157087906Y-67231873D02*
X156992668Y-67327112D01*
X156992668Y-67327112D02*
X156802192Y-67422350D01*
X156802192Y-67422350D02*
X156421239Y-67422350D01*
X156421239Y-67422350D02*
X156230763Y-67327112D01*
X156230763Y-67327112D02*
X156135525Y-67231873D01*
X156135525Y-67231873D02*
X156040287Y-67041397D01*
X156040287Y-67041397D02*
X156040287Y-66565207D01*
X156040287Y-66565207D02*
X156135525Y-66374731D01*
X156135525Y-66374731D02*
X156230763Y-66279492D01*
X156230763Y-66279492D02*
X156421239Y-66184254D01*
X156421239Y-66184254D02*
X156802192Y-66184254D01*
X156802192Y-66184254D02*
X156992668Y-66279492D01*
X156992668Y-66279492D02*
X157087906Y-66374731D01*
X157087906Y-66374731D02*
X157183144Y-66565207D01*
X154326001Y-66089016D02*
X154326001Y-67422350D01*
X154802192Y-65327112D02*
X155278382Y-66755683D01*
X155278382Y-66755683D02*
X154040287Y-66755683D01*
X151087905Y-66374731D02*
X151754572Y-66374731D01*
X151754572Y-67422350D02*
X151754572Y-65422350D01*
X151754572Y-65422350D02*
X150802191Y-65422350D01*
X149183143Y-67422350D02*
X149183143Y-66374731D01*
X149183143Y-66374731D02*
X149278381Y-66184254D01*
X149278381Y-66184254D02*
X149468857Y-66089016D01*
X149468857Y-66089016D02*
X149849810Y-66089016D01*
X149849810Y-66089016D02*
X150040286Y-66184254D01*
X149183143Y-67327112D02*
X149373619Y-67422350D01*
X149373619Y-67422350D02*
X149849810Y-67422350D01*
X149849810Y-67422350D02*
X150040286Y-67327112D01*
X150040286Y-67327112D02*
X150135524Y-67136635D01*
X150135524Y-67136635D02*
X150135524Y-66946159D01*
X150135524Y-66946159D02*
X150040286Y-66755683D01*
X150040286Y-66755683D02*
X149849810Y-66660445D01*
X149849810Y-66660445D02*
X149373619Y-66660445D01*
X149373619Y-66660445D02*
X149183143Y-66565207D01*
X147945048Y-67422350D02*
X148135524Y-67327112D01*
X148135524Y-67327112D02*
X148230762Y-67136635D01*
X148230762Y-67136635D02*
X148230762Y-65422350D01*
X146897429Y-67422350D02*
X147087905Y-67327112D01*
X147087905Y-67327112D02*
X147183143Y-67136635D01*
X147183143Y-67136635D02*
X147183143Y-65422350D01*
X144706952Y-65612826D02*
X144611714Y-65517588D01*
X144611714Y-65517588D02*
X144421238Y-65422350D01*
X144421238Y-65422350D02*
X143945047Y-65422350D01*
X143945047Y-65422350D02*
X143754571Y-65517588D01*
X143754571Y-65517588D02*
X143659333Y-65612826D01*
X143659333Y-65612826D02*
X143564095Y-65803302D01*
X143564095Y-65803302D02*
X143564095Y-65993778D01*
X143564095Y-65993778D02*
X143659333Y-66279492D01*
X143659333Y-66279492D02*
X144802190Y-67422350D01*
X144802190Y-67422350D02*
X143564095Y-67422350D01*
X142326000Y-65422350D02*
X142135523Y-65422350D01*
X142135523Y-65422350D02*
X141945047Y-65517588D01*
X141945047Y-65517588D02*
X141849809Y-65612826D01*
X141849809Y-65612826D02*
X141754571Y-65803302D01*
X141754571Y-65803302D02*
X141659333Y-66184254D01*
X141659333Y-66184254D02*
X141659333Y-66660445D01*
X141659333Y-66660445D02*
X141754571Y-67041397D01*
X141754571Y-67041397D02*
X141849809Y-67231873D01*
X141849809Y-67231873D02*
X141945047Y-67327112D01*
X141945047Y-67327112D02*
X142135523Y-67422350D01*
X142135523Y-67422350D02*
X142326000Y-67422350D01*
X142326000Y-67422350D02*
X142516476Y-67327112D01*
X142516476Y-67327112D02*
X142611714Y-67231873D01*
X142611714Y-67231873D02*
X142706952Y-67041397D01*
X142706952Y-67041397D02*
X142802190Y-66660445D01*
X142802190Y-66660445D02*
X142802190Y-66184254D01*
X142802190Y-66184254D02*
X142706952Y-65803302D01*
X142706952Y-65803302D02*
X142611714Y-65612826D01*
X142611714Y-65612826D02*
X142516476Y-65517588D01*
X142516476Y-65517588D02*
X142326000Y-65422350D01*
X140897428Y-65612826D02*
X140802190Y-65517588D01*
X140802190Y-65517588D02*
X140611714Y-65422350D01*
X140611714Y-65422350D02*
X140135523Y-65422350D01*
X140135523Y-65422350D02*
X139945047Y-65517588D01*
X139945047Y-65517588D02*
X139849809Y-65612826D01*
X139849809Y-65612826D02*
X139754571Y-65803302D01*
X139754571Y-65803302D02*
X139754571Y-65993778D01*
X139754571Y-65993778D02*
X139849809Y-66279492D01*
X139849809Y-66279492D02*
X140992666Y-67422350D01*
X140992666Y-67422350D02*
X139754571Y-67422350D01*
X138040285Y-66089016D02*
X138040285Y-67422350D01*
X138516476Y-65327112D02*
X138992666Y-66755683D01*
X138992666Y-66755683D02*
X137754571Y-66755683D01*
X167754574Y-68832714D02*
X167659336Y-68737476D01*
X167659336Y-68737476D02*
X167468860Y-68642238D01*
X167468860Y-68642238D02*
X166992669Y-68642238D01*
X166992669Y-68642238D02*
X166802193Y-68737476D01*
X166802193Y-68737476D02*
X166706955Y-68832714D01*
X166706955Y-68832714D02*
X166611717Y-69023190D01*
X166611717Y-69023190D02*
X166611717Y-69213666D01*
X166611717Y-69213666D02*
X166706955Y-69499380D01*
X166706955Y-69499380D02*
X167849812Y-70642238D01*
X167849812Y-70642238D02*
X166611717Y-70642238D01*
X165754574Y-70451761D02*
X165659336Y-70547000D01*
X165659336Y-70547000D02*
X165754574Y-70642238D01*
X165754574Y-70642238D02*
X165849812Y-70547000D01*
X165849812Y-70547000D02*
X165754574Y-70451761D01*
X165754574Y-70451761D02*
X165754574Y-70642238D01*
X163945050Y-69308904D02*
X163945050Y-70642238D01*
X164421241Y-68547000D02*
X164897431Y-69975571D01*
X164897431Y-69975571D02*
X163659336Y-69975571D01*
X161849812Y-68737476D02*
X162040288Y-68642238D01*
X162040288Y-68642238D02*
X162326002Y-68642238D01*
X162326002Y-68642238D02*
X162611717Y-68737476D01*
X162611717Y-68737476D02*
X162802193Y-68927952D01*
X162802193Y-68927952D02*
X162897431Y-69118428D01*
X162897431Y-69118428D02*
X162992669Y-69499380D01*
X162992669Y-69499380D02*
X162992669Y-69785095D01*
X162992669Y-69785095D02*
X162897431Y-70166047D01*
X162897431Y-70166047D02*
X162802193Y-70356523D01*
X162802193Y-70356523D02*
X162611717Y-70547000D01*
X162611717Y-70547000D02*
X162326002Y-70642238D01*
X162326002Y-70642238D02*
X162135526Y-70642238D01*
X162135526Y-70642238D02*
X161849812Y-70547000D01*
X161849812Y-70547000D02*
X161754574Y-70451761D01*
X161754574Y-70451761D02*
X161754574Y-69785095D01*
X161754574Y-69785095D02*
X162135526Y-69785095D01*
X160897431Y-70642238D02*
X160897431Y-68642238D01*
X160897431Y-69594619D02*
X159754574Y-69594619D01*
X159754574Y-70642238D02*
X159754574Y-68642238D01*
X158992669Y-69308904D02*
X157945050Y-69308904D01*
X157945050Y-69308904D02*
X158992669Y-70642238D01*
X158992669Y-70642238D02*
X157945050Y-70642238D01*
X155659335Y-70642238D02*
X155659335Y-68642238D01*
X155659335Y-68642238D02*
X154897430Y-68642238D01*
X154897430Y-68642238D02*
X154706954Y-68737476D01*
X154706954Y-68737476D02*
X154611716Y-68832714D01*
X154611716Y-68832714D02*
X154516478Y-69023190D01*
X154516478Y-69023190D02*
X154516478Y-69308904D01*
X154516478Y-69308904D02*
X154611716Y-69499380D01*
X154611716Y-69499380D02*
X154706954Y-69594619D01*
X154706954Y-69594619D02*
X154897430Y-69689857D01*
X154897430Y-69689857D02*
X155659335Y-69689857D01*
X152802192Y-70642238D02*
X152802192Y-69594619D01*
X152802192Y-69594619D02*
X152897430Y-69404142D01*
X152897430Y-69404142D02*
X153087906Y-69308904D01*
X153087906Y-69308904D02*
X153468859Y-69308904D01*
X153468859Y-69308904D02*
X153659335Y-69404142D01*
X152802192Y-70547000D02*
X152992668Y-70642238D01*
X152992668Y-70642238D02*
X153468859Y-70642238D01*
X153468859Y-70642238D02*
X153659335Y-70547000D01*
X153659335Y-70547000D02*
X153754573Y-70356523D01*
X153754573Y-70356523D02*
X153754573Y-70166047D01*
X153754573Y-70166047D02*
X153659335Y-69975571D01*
X153659335Y-69975571D02*
X153468859Y-69880333D01*
X153468859Y-69880333D02*
X152992668Y-69880333D01*
X152992668Y-69880333D02*
X152802192Y-69785095D01*
X152135525Y-69308904D02*
X151373621Y-69308904D01*
X151849811Y-68642238D02*
X151849811Y-70356523D01*
X151849811Y-70356523D02*
X151754573Y-70547000D01*
X151754573Y-70547000D02*
X151564097Y-70642238D01*
X151564097Y-70642238D02*
X151373621Y-70642238D01*
X149849811Y-70547000D02*
X150040287Y-70642238D01*
X150040287Y-70642238D02*
X150421240Y-70642238D01*
X150421240Y-70642238D02*
X150611716Y-70547000D01*
X150611716Y-70547000D02*
X150706954Y-70451761D01*
X150706954Y-70451761D02*
X150802192Y-70261285D01*
X150802192Y-70261285D02*
X150802192Y-69689857D01*
X150802192Y-69689857D02*
X150706954Y-69499380D01*
X150706954Y-69499380D02*
X150611716Y-69404142D01*
X150611716Y-69404142D02*
X150421240Y-69308904D01*
X150421240Y-69308904D02*
X150040287Y-69308904D01*
X150040287Y-69308904D02*
X149849811Y-69404142D01*
X148992668Y-70642238D02*
X148992668Y-68642238D01*
X148135525Y-70642238D02*
X148135525Y-69594619D01*
X148135525Y-69594619D02*
X148230763Y-69404142D01*
X148230763Y-69404142D02*
X148421239Y-69308904D01*
X148421239Y-69308904D02*
X148706954Y-69308904D01*
X148706954Y-69308904D02*
X148897430Y-69404142D01*
X148897430Y-69404142D02*
X148992668Y-69499380D01*
X145754572Y-70070809D02*
X144802191Y-70070809D01*
X145945048Y-70642238D02*
X145278382Y-68642238D01*
X145278382Y-68642238D02*
X144611715Y-70642238D01*
X143945048Y-69308904D02*
X143945048Y-70642238D01*
X143945048Y-69499380D02*
X143849810Y-69404142D01*
X143849810Y-69404142D02*
X143659334Y-69308904D01*
X143659334Y-69308904D02*
X143373619Y-69308904D01*
X143373619Y-69308904D02*
X143183143Y-69404142D01*
X143183143Y-69404142D02*
X143087905Y-69594619D01*
X143087905Y-69594619D02*
X143087905Y-70642238D01*
X142421238Y-69308904D02*
X141659334Y-69308904D01*
X142135524Y-68642238D02*
X142135524Y-70356523D01*
X142135524Y-70356523D02*
X142040286Y-70547000D01*
X142040286Y-70547000D02*
X141849810Y-70642238D01*
X141849810Y-70642238D02*
X141659334Y-70642238D01*
X140230762Y-70547000D02*
X140421238Y-70642238D01*
X140421238Y-70642238D02*
X140802191Y-70642238D01*
X140802191Y-70642238D02*
X140992667Y-70547000D01*
X140992667Y-70547000D02*
X141087905Y-70356523D01*
X141087905Y-70356523D02*
X141087905Y-69594619D01*
X141087905Y-69594619D02*
X140992667Y-69404142D01*
X140992667Y-69404142D02*
X140802191Y-69308904D01*
X140802191Y-69308904D02*
X140421238Y-69308904D01*
X140421238Y-69308904D02*
X140230762Y-69404142D01*
X140230762Y-69404142D02*
X140135524Y-69594619D01*
X140135524Y-69594619D02*
X140135524Y-69785095D01*
X140135524Y-69785095D02*
X141087905Y-69975571D01*
X139278381Y-69308904D02*
X139278381Y-70642238D01*
X139278381Y-69499380D02*
X139183143Y-69404142D01*
X139183143Y-69404142D02*
X138992667Y-69308904D01*
X138992667Y-69308904D02*
X138706952Y-69308904D01*
X138706952Y-69308904D02*
X138516476Y-69404142D01*
X138516476Y-69404142D02*
X138421238Y-69594619D01*
X138421238Y-69594619D02*
X138421238Y-70642238D01*
X137468857Y-69308904D02*
X137468857Y-70642238D01*
X137468857Y-69499380D02*
X137373619Y-69404142D01*
X137373619Y-69404142D02*
X137183143Y-69308904D01*
X137183143Y-69308904D02*
X136897428Y-69308904D01*
X136897428Y-69308904D02*
X136706952Y-69404142D01*
X136706952Y-69404142D02*
X136611714Y-69594619D01*
X136611714Y-69594619D02*
X136611714Y-70642238D01*
X134802190Y-70642238D02*
X134802190Y-69594619D01*
X134802190Y-69594619D02*
X134897428Y-69404142D01*
X134897428Y-69404142D02*
X135087904Y-69308904D01*
X135087904Y-69308904D02*
X135468857Y-69308904D01*
X135468857Y-69308904D02*
X135659333Y-69404142D01*
X134802190Y-70547000D02*
X134992666Y-70642238D01*
X134992666Y-70642238D02*
X135468857Y-70642238D01*
X135468857Y-70642238D02*
X135659333Y-70547000D01*
X135659333Y-70547000D02*
X135754571Y-70356523D01*
X135754571Y-70356523D02*
X135754571Y-70166047D01*
X135754571Y-70166047D02*
X135659333Y-69975571D01*
X135659333Y-69975571D02*
X135468857Y-69880333D01*
X135468857Y-69880333D02*
X134992666Y-69880333D01*
X134992666Y-69880333D02*
X134802190Y-69785095D01*
M02*
