%TF.GenerationSoftware,KiCad,Pcbnew,8.0.4*%
%TF.CreationDate,2024-11-08T13:08:58-05:00*%
%TF.ProjectId,2.4GHz_Patch,322e3447-487a-45f5-9061-7463682e6b69,rev?*%
%TF.SameCoordinates,Original*%
%TF.FileFunction,Drillmap*%
%TF.FilePolarity,Positive*%
%FSLAX45Y45*%
G04 Gerber Fmt 4.5, Leading zero omitted, Abs format (unit mm)*
G04 Created by KiCad (PCBNEW 8.0.4) date 2024-11-08 13:08:58*
%MOMM*%
%LPD*%
G01*
G04 APERTURE LIST*
%ADD10C,0.050000*%
%ADD11C,0.200000*%
G04 APERTURE END LIST*
D10*
X18640000Y-3255900D02*
G75*
G02*
X19140000Y-3755900I0J-500000D01*
G01*
X19140000Y-10255900D02*
G75*
G02*
X18640000Y-10755900I-500000J0D01*
G01*
X11640000Y-3755900D02*
G75*
G02*
X12140000Y-3255900I500000J0D01*
G01*
X12140000Y-10755900D02*
G75*
G02*
X11640000Y-10255900I0J500000D01*
G01*
X12140000Y-3255900D02*
X18640000Y-3255900D01*
X19140000Y-3755900D02*
X19140000Y-10255900D01*
X18640000Y-10755900D02*
X12140000Y-10755900D01*
X11640000Y-10255900D02*
X11640000Y-3755900D01*
D11*
X11898277Y-11069884D02*
X11898277Y-10869884D01*
X11898277Y-10869884D02*
X11945896Y-10869884D01*
X11945896Y-10869884D02*
X11974467Y-10879408D01*
X11974467Y-10879408D02*
X11993515Y-10898455D01*
X11993515Y-10898455D02*
X12003039Y-10917503D01*
X12003039Y-10917503D02*
X12012562Y-10955598D01*
X12012562Y-10955598D02*
X12012562Y-10984170D01*
X12012562Y-10984170D02*
X12003039Y-11022265D01*
X12003039Y-11022265D02*
X11993515Y-11041312D01*
X11993515Y-11041312D02*
X11974467Y-11060360D01*
X11974467Y-11060360D02*
X11945896Y-11069884D01*
X11945896Y-11069884D02*
X11898277Y-11069884D01*
X12098277Y-11069884D02*
X12098277Y-10936550D01*
X12098277Y-10974646D02*
X12107801Y-10955598D01*
X12107801Y-10955598D02*
X12117324Y-10946074D01*
X12117324Y-10946074D02*
X12136372Y-10936550D01*
X12136372Y-10936550D02*
X12155420Y-10936550D01*
X12222086Y-11069884D02*
X12222086Y-10936550D01*
X12222086Y-10869884D02*
X12212562Y-10879408D01*
X12212562Y-10879408D02*
X12222086Y-10888931D01*
X12222086Y-10888931D02*
X12231610Y-10879408D01*
X12231610Y-10879408D02*
X12222086Y-10869884D01*
X12222086Y-10869884D02*
X12222086Y-10888931D01*
X12345896Y-11069884D02*
X12326848Y-11060360D01*
X12326848Y-11060360D02*
X12317324Y-11041312D01*
X12317324Y-11041312D02*
X12317324Y-10869884D01*
X12450658Y-11069884D02*
X12431610Y-11060360D01*
X12431610Y-11060360D02*
X12422086Y-11041312D01*
X12422086Y-11041312D02*
X12422086Y-10869884D01*
X12679229Y-11069884D02*
X12679229Y-10869884D01*
X12679229Y-10869884D02*
X12745896Y-11012741D01*
X12745896Y-11012741D02*
X12812562Y-10869884D01*
X12812562Y-10869884D02*
X12812562Y-11069884D01*
X12993515Y-11069884D02*
X12993515Y-10965122D01*
X12993515Y-10965122D02*
X12983991Y-10946074D01*
X12983991Y-10946074D02*
X12964943Y-10936550D01*
X12964943Y-10936550D02*
X12926848Y-10936550D01*
X12926848Y-10936550D02*
X12907801Y-10946074D01*
X12993515Y-11060360D02*
X12974467Y-11069884D01*
X12974467Y-11069884D02*
X12926848Y-11069884D01*
X12926848Y-11069884D02*
X12907801Y-11060360D01*
X12907801Y-11060360D02*
X12898277Y-11041312D01*
X12898277Y-11041312D02*
X12898277Y-11022265D01*
X12898277Y-11022265D02*
X12907801Y-11003217D01*
X12907801Y-11003217D02*
X12926848Y-10993693D01*
X12926848Y-10993693D02*
X12974467Y-10993693D01*
X12974467Y-10993693D02*
X12993515Y-10984170D01*
X13088753Y-10936550D02*
X13088753Y-11136550D01*
X13088753Y-10946074D02*
X13107801Y-10936550D01*
X13107801Y-10936550D02*
X13145896Y-10936550D01*
X13145896Y-10936550D02*
X13164943Y-10946074D01*
X13164943Y-10946074D02*
X13174467Y-10955598D01*
X13174467Y-10955598D02*
X13183991Y-10974646D01*
X13183991Y-10974646D02*
X13183991Y-11031789D01*
X13183991Y-11031789D02*
X13174467Y-11050836D01*
X13174467Y-11050836D02*
X13164943Y-11060360D01*
X13164943Y-11060360D02*
X13145896Y-11069884D01*
X13145896Y-11069884D02*
X13107801Y-11069884D01*
X13107801Y-11069884D02*
X13088753Y-11060360D01*
X13269705Y-11050836D02*
X13279229Y-11060360D01*
X13279229Y-11060360D02*
X13269705Y-11069884D01*
X13269705Y-11069884D02*
X13260182Y-11060360D01*
X13260182Y-11060360D02*
X13269705Y-11050836D01*
X13269705Y-11050836D02*
X13269705Y-11069884D01*
X13269705Y-10946074D02*
X13279229Y-10955598D01*
X13279229Y-10955598D02*
X13269705Y-10965122D01*
X13269705Y-10965122D02*
X13260182Y-10955598D01*
X13260182Y-10955598D02*
X13269705Y-10946074D01*
X13269705Y-10946074D02*
X13269705Y-10965122D01*
M02*
