%TF.GenerationSoftware,KiCad,Pcbnew,8.0.4*%
%TF.CreationDate,2024-11-08T13:08:53-05:00*%
%TF.ProjectId,2.4GHz_Patch,322e3447-487a-45f5-9061-7463682e6b69,rev?*%
%TF.SameCoordinates,Original*%
%TF.FileFunction,Copper,L2,Bot*%
%TF.FilePolarity,Positive*%
%FSLAX46Y46*%
G04 Gerber Fmt 4.6, Leading zero omitted, Abs format (unit mm)*
G04 Created by KiCad (PCBNEW 8.0.4) date 2024-11-08 13:08:53*
%MOMM*%
%LPD*%
G01*
G04 APERTURE LIST*
%TA.AperFunction,SMDPad,CuDef*%
%ADD10R,4.560000X1.000000*%
%TD*%
%TA.AperFunction,ViaPad*%
%ADD11C,1.000000*%
%TD*%
G04 APERTURE END LIST*
D10*
%TO.P,J1,SH3*%
%TO.N,GND*%
X118750000Y-65980000D03*
%TO.P,J1,SH4*%
X118750000Y-71520000D03*
%TD*%
D11*
%TO.N,GND*%
X118750000Y-71520000D03*
X118750000Y-65980000D03*
%TD*%
%TA.AperFunction,Conductor*%
%TO.N,GND*%
G36*
X186402702Y-33059617D02*
G01*
X186786771Y-33076386D01*
X186797506Y-33077326D01*
X187175971Y-33127152D01*
X187186597Y-33129025D01*
X187559284Y-33211648D01*
X187569710Y-33214442D01*
X187933765Y-33329227D01*
X187943911Y-33332920D01*
X188296578Y-33479000D01*
X188306369Y-33483566D01*
X188644942Y-33659816D01*
X188654310Y-33665224D01*
X188976244Y-33870318D01*
X188985105Y-33876523D01*
X189287930Y-34108889D01*
X189296217Y-34115843D01*
X189577635Y-34373715D01*
X189585284Y-34381364D01*
X189843156Y-34662782D01*
X189850110Y-34671069D01*
X190082476Y-34973894D01*
X190088681Y-34982755D01*
X190293775Y-35304689D01*
X190299183Y-35314057D01*
X190475430Y-35652623D01*
X190480002Y-35662427D01*
X190626075Y-36015078D01*
X190629775Y-36025244D01*
X190744554Y-36389278D01*
X190747354Y-36399727D01*
X190829971Y-36772389D01*
X190831849Y-36783042D01*
X190881671Y-37161473D01*
X190882614Y-37172249D01*
X190899382Y-37556297D01*
X190899500Y-37561706D01*
X190899500Y-102556293D01*
X190899382Y-102561702D01*
X190882614Y-102945750D01*
X190881671Y-102956526D01*
X190831849Y-103334957D01*
X190829971Y-103345610D01*
X190747354Y-103718272D01*
X190744554Y-103728721D01*
X190629775Y-104092755D01*
X190626075Y-104102921D01*
X190480002Y-104455572D01*
X190475430Y-104465376D01*
X190299183Y-104803942D01*
X190293775Y-104813310D01*
X190088681Y-105135244D01*
X190082476Y-105144105D01*
X189850110Y-105446930D01*
X189843156Y-105455217D01*
X189585284Y-105736635D01*
X189577635Y-105744284D01*
X189296217Y-106002156D01*
X189287930Y-106009110D01*
X188985105Y-106241476D01*
X188976244Y-106247681D01*
X188654310Y-106452775D01*
X188644942Y-106458183D01*
X188306376Y-106634430D01*
X188296572Y-106639002D01*
X187943921Y-106785075D01*
X187933755Y-106788775D01*
X187569721Y-106903554D01*
X187559272Y-106906354D01*
X187186610Y-106988971D01*
X187175957Y-106990849D01*
X186797526Y-107040671D01*
X186786750Y-107041614D01*
X186402703Y-107058382D01*
X186397294Y-107058500D01*
X121402706Y-107058500D01*
X121397297Y-107058382D01*
X121013249Y-107041614D01*
X121002473Y-107040671D01*
X120624042Y-106990849D01*
X120613389Y-106988971D01*
X120240727Y-106906354D01*
X120230278Y-106903554D01*
X119866244Y-106788775D01*
X119856078Y-106785075D01*
X119503427Y-106639002D01*
X119493623Y-106634430D01*
X119155057Y-106458183D01*
X119145689Y-106452775D01*
X118823755Y-106247681D01*
X118814894Y-106241476D01*
X118512069Y-106009110D01*
X118503782Y-106002156D01*
X118222364Y-105744284D01*
X118214715Y-105736635D01*
X117956843Y-105455217D01*
X117949889Y-105446930D01*
X117717523Y-105144105D01*
X117711318Y-105135244D01*
X117506224Y-104813310D01*
X117500816Y-104803942D01*
X117324569Y-104465376D01*
X117319997Y-104455572D01*
X117173924Y-104102921D01*
X117170224Y-104092755D01*
X117055442Y-103728710D01*
X117052648Y-103718284D01*
X116970025Y-103345597D01*
X116968152Y-103334971D01*
X116918326Y-102956506D01*
X116917386Y-102945771D01*
X116900618Y-102561702D01*
X116900500Y-102556293D01*
X116900500Y-37561706D01*
X116900618Y-37556297D01*
X116903377Y-37493108D01*
X116917386Y-37172226D01*
X116918326Y-37161495D01*
X116968152Y-36783025D01*
X116970025Y-36772405D01*
X117052649Y-36399709D01*
X117055440Y-36389295D01*
X117170230Y-36025227D01*
X117173917Y-36015095D01*
X117320003Y-35662412D01*
X117324561Y-35652638D01*
X117500822Y-35314045D01*
X117506217Y-35304700D01*
X117711325Y-34982744D01*
X117717515Y-34973905D01*
X117949896Y-34671060D01*
X117956834Y-34662791D01*
X118214726Y-34381352D01*
X118222352Y-34373726D01*
X118503791Y-34115834D01*
X118512060Y-34108896D01*
X118814905Y-33876515D01*
X118823744Y-33870325D01*
X119145700Y-33665217D01*
X119155045Y-33659822D01*
X119493638Y-33483561D01*
X119503412Y-33479003D01*
X119856095Y-33332917D01*
X119866227Y-33329230D01*
X120230295Y-33214440D01*
X120240709Y-33211649D01*
X120613405Y-33129025D01*
X120624025Y-33127152D01*
X121002495Y-33077326D01*
X121013226Y-33076386D01*
X121397297Y-33059617D01*
X121402706Y-33059500D01*
X121465892Y-33059500D01*
X186334108Y-33059500D01*
X186397294Y-33059500D01*
X186402702Y-33059617D01*
G37*
%TD.AperFunction*%
%TD*%
M02*
